<!--?xml version="1.0" standalone="no"?-->

<svg version="1.0" xmlns="http://www.w3.org/2000/svg" width="288.000000pt" height="300.000000pt" viewBox="0 0 288.000000 300.000000" preserveAspectRatio="xMidYMid meet">
<g transform="translate(0.000000,300.000000) scale(0.100000,-0.100000)" fill="#252525" stroke="none">
<path class="node" id="node1" d="M1217 2279 c-153 -36 -335 -214 -341 -332 -1 -25 3 -32 18 -32 14 0
24 14 37 54 36 105 141 206 256 247 37 13 76 24 87 24 12 0 16 5 12 16 -3 9
-6 20 -6 25 0 11 -11 10 -63 -2z"></path>
<path class="node" id="node2" d="M1632 2269 c2 -19 11 -25 43 -30 137 -24 275 -144 315 -274 16 -52
22 -58 45 -42 17 13 17 17 2 60 -50 149 -212 287 -355 304 -52 6 -54 5 -50
-18z"></path>
<path class="node" id="node3" d="M1610 2171 c0 -5 -2 -16 -6 -24 -4 -10 5 -16 31 -20 94 -15 209 -108
241 -195 22 -61 26 -65 48 -49 18 13 18 16 -7 70 -35 78 -107 151 -181 186
-65 31 -126 46 -126 32z"></path>
<path class="node" id="node4" d="M1223 2151 c-28 -9 -70 -30 -92 -44 -73 -48 -162 -183 -147 -222 11
-29 39 -11 55 34 32 89 144 183 236 198 29 5 35 10 35 29 0 29 -16 30 -87 5z"></path>
<path class="node" id="node5" d="M1268 2038 c-34 -12 -72 -34 -96 -57 -42 -41 -88 -124 -77 -141 12
-19 35 -10 46 16 20 53 70 103 135 135 58 29 77 50 57 62 -5 2 -34 -4 -65 -15z"></path>
<path class="node" id="node6" d="M1577 2040 c-3 -13 0 -20 9 -20 53 0 176 -100 190 -155 6 -25 37 -35
48 -16 10 15 -43 105 -85 143 -35 32 -111 68 -145 68 -6 0 -14 -9 -17 -20z"></path>
<path class="node" id="node7" d="M1370 1945 c-60 -19 -125 -75 -158 -139 -25 -48 -27 -60 -30 -223
l-4 -173 282 0 282 0 -4 173 c-5 160 -7 175 -31 223 -62 123 -202 180 -337
139z"></path>
<path class="node" id="node8" d="M1102 1298 l3 -63 355 0 355 0 3 63 3 62 -361 0 -361 0 3 -62z"></path>
</g>
<g transform="translate(0.000000,300.000000) scale(0.100000,-0.100000)" fill="#B8B8B8" stroke="none">

</g>
</svg>